<svg width="80" height="177" viewBox="0 0 80 177" fill="none" xmlns="http://www.w3.org/2000/svg">
<path d="M45.2326 104.808C30.0706 114.089 25.2996 105.625 24.8093 100.234C24.8093 92.3913 24.8093 85.8559 14.5162 74.2556C-10.3182 46.807 -2.47578 3.01984 31.835 0.242301C66.1458 -2.53524 56.1793 19.1949 44.0889 33.246C32.0223 47.2693 39.6472 51.5283 57.7058 61.615L57.8132 61.675C81.3406 75.8894 61.7344 88.6334 50.1341 90.9208C38.5338 93.2082 48.5003 100.234 45.2326 104.808Z" fill="url(#paint0_linear_774_2)"/>
<path d="M79.6224 143.866C80.905 129.173 67.3262 125.637 59.0204 125.637C58.0219 125.637 57.1695 126.321 56.88 127.277C56.4067 128.838 57.6045 130.414 59.2319 130.536C66.5664 131.088 76.4562 134.208 74.6319 143.866C72.8615 153.239 64.7382 155.005 58.9871 154.607C57.4025 154.498 55.9173 155.678 55.9173 157.266C55.9173 158.45 56.7541 159.477 57.931 159.6C65.6898 160.414 78.3662 158.255 79.6224 143.866Z" fill="url(#paint1_linear_774_2)"/>
<path d="M58.3203 120.461V173.34C58.3203 175.05 56.9337 176.437 55.2233 176.437H13.4757C11.7652 176.437 10.3787 175.05 10.3787 173.34L10.3787 120.461C10.3787 118.751 11.7653 117.364 13.4757 117.364H55.2233C56.9337 117.364 58.3203 118.751 58.3203 120.461Z" fill="url(#paint2_linear_774_2)"/>
<defs>
<linearGradient id="paint0_linear_774_2" x1="-23.4501" y1="116.755" x2="68.8627" y2="-6.92902e-07" gradientUnits="userSpaceOnUse">
<stop stop-color="#ECECEC"/>
<stop offset="1" stop-color="#F5F5F5" stop-opacity="0"/>
</linearGradient>
<linearGradient id="paint1_linear_774_2" x1="87.7533" y1="132.789" x2="55.9173" y2="133.488" gradientUnits="userSpaceOnUse">
<stop stop-color="white"/>
<stop offset="1" stop-color="#CCCCCC"/>
</linearGradient>
<linearGradient id="paint2_linear_774_2" x1="34.3495" y1="99.5313" x2="34.3495" y2="194.755" gradientUnits="userSpaceOnUse">
<stop stop-color="white"/>
<stop offset="1" stop-color="#CCCCCC"/>
</linearGradient>
</defs>
</svg>
