<svg width="381" height="325" viewBox="0 0 381 325" fill="none" xmlns="http://www.w3.org/2000/svg">
<path d="M45.5907 166.187C56.7975 158.405 98.4941 144.387 117.941 138.351H139.785C152.748 141.564 181.873 149.289 194.664 154.474C207.454 159.659 230.774 190.365 240.136 204.624L229.949 224.132C204.022 249.713 224.912 272.298 238.74 280.652C217.998 280.652 209.068 272.874 207.195 268.985C209.269 280.739 210.94 309.604 211.516 322.568H58.9787V299.008H0.799731C-4.56186 240.346 31.5821 175.915 45.5907 166.187Z" fill="url(#paint0_linear_767_2)"/>
<ellipse cx="130.51" cy="156.859" rx="25.9725" ry="18.5082" fill="#CF0606"/>
<path d="M111.228 154.948C114.599 135.564 113.411 117.626 112.885 111.437C113.622 105.643 144.281 116.495 159.03 122.29C150.708 126.504 148.451 147.573 148.364 157.581C148.627 160.874 146.573 167.853 136.248 169.433C118.971 171.435 112.369 160.61 111.228 154.948Z" fill="url(#paint1_linear_767_2)"/>
<mask id="mask0_767_2" style="mask-type:alpha" maskUnits="userSpaceOnUse" x="111" y="109" width="49" height="61">
<path d="M111.228 154.948C114.599 135.564 113.411 117.626 112.885 111.437C113.622 105.643 144.281 116.495 159.03 122.29C150.708 126.504 148.451 147.573 148.364 157.581C148.627 160.874 146.573 167.853 136.248 169.433C118.971 171.435 112.369 160.61 111.228 154.948Z" fill="#BABABA"/>
</mask>
<g mask="url(#mask0_767_2)">
<path opacity="0.1" d="M153.927 142.4C133.164 139.16 117.77 120.906 112.669 112.184C124.519 109.739 151.165 106.317 162.946 112.184C174.726 118.051 161.842 134.773 153.927 142.4Z" fill="black"/>
</g>
<path d="M147.601 125.839C181.704 124.356 182.678 77.7197 178.903 54.5869C117.288 2.36288 92.5491 43.398 87.8813 70.4435C93.5788 89.5264 113.499 127.322 147.601 125.839Z" fill="url(#paint2_linear_767_2)"/>
<path d="M103.583 7.97291C93.7717 4.88033 73.318 3.33406 69.9907 21.8896C69.9907 33.8867 98.9438 30.8475 103.583 7.97291Z" fill="#30235B"/>
<path d="M115.395 69.5962L129.291 81.5303L127.783 88.4905L114.823 77.1163L115.395 69.5962Z" fill="#111111"/>
<path d="M101.267 80.328C113.129 90.3774 113.897 106.069 112.799 112.659C108.955 111.629 98.219 104.957 86.0278 86.5059C66.5879 46.8025 90.0091 17.1073 104.15 7.22269C142.041 -14.8119 192.7 19.3725 183.845 45.5257C174.99 71.6789 132.637 65.6383 116.917 55.6164C120.212 65.501 117.192 75.2484 115.27 78.8865C107.857 61.5883 86.4397 67.7663 101.267 80.328Z" fill="#30235B"/>
<path d="M126.659 2.11996C151.891 -5.1275 167.258 7.93582 171.788 15.3734C166.699 12.6333 152.595 8.79702 136.893 15.3734C112.063 26.7814 106.639 51.1074 107.03 61.8443L90.5894 60.67V54.6304C92.0992 40.1467 101.427 9.36741 126.659 2.11996Z" fill="white"/>
<ellipse cx="97.3228" cy="76.5653" rx="19.2976" ry="23.6088" fill="white"/>
<ellipse cx="97.3228" cy="76.5653" rx="19.2976" ry="23.6088" fill="white"/>
<ellipse cx="97.3229" cy="76.5653" rx="9.21133" ry="11.2692" fill="#24C28A"/>
<path opacity="0.5" d="M181.641 72.9625C174.488 70.7517 166.784 75.4647 163.827 78.0976C158.449 83.2327 166.604 96.2902 176.032 90.2754C183.575 85.4635 182.914 76.7285 181.641 72.9625Z" fill="#E6FCFF"/>
<path fill-rule="evenodd" clip-rule="evenodd" d="M160.796 76.5476C171.141 66.9906 180.953 68.6249 184.565 70.6365C186.656 76.1722 184.565 92.347 173.027 93.781C163.797 94.9282 160.634 87.7914 160.206 84.0798C158.452 82.6627 157.286 83.8847 156.923 84.6726C157.226 94.9876 148.933 101.965 140.034 100.347C132.915 99.053 129.815 91.9391 129.155 88.5437H127.684V82.5076C136.954 73.4301 149.763 75.6549 155.008 77.9021C156.387 76.8185 159.441 76.5476 160.796 76.5476ZM153.133 84.9871C152.523 78.22 144.558 79.0704 140.652 80.3415C137.971 81.1504 132.609 83.3924 132.609 85.8884C132.609 89.0085 134.604 93.9486 139.474 96.3581C146.199 99.686 153.895 93.4457 153.133 84.9871ZM181.098 73.6101C173.945 71.3993 167.409 75.1872 164.451 77.8201C159.073 82.9553 166.138 95.5355 176.007 90.2751C181.917 87.125 182.371 77.3761 181.098 73.6101Z" fill="#111111"/>
<path opacity="0.5" d="M153.158 84.987C152.548 78.22 144.584 79.0705 140.678 80.3416C137.997 81.1505 132.635 83.3923 132.635 85.8884C132.635 89.0084 134.63 93.9483 139.499 96.3579C146.225 99.686 153.921 93.4459 153.158 84.987Z" fill="#E6FCFF"/>
<path d="M0.750358 299.083C6.74966 325.819 42.3762 325.873 59.4395 322.559L190.965 303.556C192.661 305.029 196.721 308.912 199.398 312.663C202.076 316.414 204.53 313.777 205.422 311.989C209.277 316.166 212.115 314.178 213.052 312.663C216.371 316.842 219.165 315.383 220.146 314.131C224.751 317.558 225.913 314.58 225.919 312.663C219.637 299.36 208.367 286.027 203.517 281.023L170.723 284.026L64.1672 273.162C43.9521 258.979 -6.74877 265.663 0.750358 299.083Z" fill="url(#paint3_linear_767_2)"/>
<path d="M255.589 258.631C249.647 277.817 241.457 281.17 238.105 280.447C202.818 256.835 217.971 232.639 229.958 223.493L261.203 159.162C256.679 155.624 251.639 144.558 252.156 137.579C252.569 131.995 256.378 131.808 258.23 132.413C258.747 126.628 262.926 126.812 264.951 127.627C266.708 121.32 271.8 122.673 274.127 124.138C274.437 115.453 280.459 116.642 283.432 118.322L288.65 132.413C290.781 132.709 295.726 133.393 298.449 133.765C301.853 134.229 306.185 134.848 304.019 139.644C302.286 143.482 293.498 156.613 289.32 162.699C280.552 186.682 261.531 239.444 255.589 258.631Z" fill="url(#paint4_linear_767_2)"/>
<path d="M165.647 315.665H234.453C234.453 319.478 231.363 322.568 227.551 322.568H172.55C168.738 322.568 165.647 319.478 165.647 315.665Z" fill="#B4B4B4"/>
<path d="M256.391 230.716C256.872 229.562 257.999 228.811 259.25 228.811H375.45C377.66 228.811 379.159 231.059 378.308 233.1L341.804 320.662C341.323 321.816 340.195 322.568 338.945 322.568H222.745C220.535 322.568 219.036 320.319 219.887 318.279L256.391 230.716Z" fill="url(#paint5_linear_767_2)"/>
<path d="M64.208 273.131L67.2935 248.841" stroke="#30235B" stroke-width="0.619401"/>
<path d="M207.101 269.129C206.638 266.278 205.852 259.387 206.407 254.632" stroke="#30235B" stroke-width="0.619401"/>
<path d="M206.263 259.949L203.608 254.57" stroke="#30235B" stroke-width="0.619401"/>
<path d="M205.324 311.767L196.706 300.89" stroke="#30235B" stroke-width="0.619401"/>
<path d="M212.952 312.306L199.502 294.85" stroke="#30235B" stroke-width="0.619401"/>
<path d="M220.023 313.905L203.304 289.817" stroke="#30235B" stroke-width="0.619401"/>
<path d="M258.226 132.517C258.686 134.913 260.189 140.576 262.515 144.064" stroke="#30235B" stroke-width="0.619401"/>
<path d="M274.156 124.188C274.86 126.66 276.694 132.235 278.393 134.76" stroke="#30235B" stroke-width="0.619401"/>
<path d="M264.857 127.78C265.687 130.471 267.747 136.387 269.349 138.524" stroke="#30235B" stroke-width="0.619401"/>
<path d="M288.584 132.404L291.148 139.906" stroke="#30235B" stroke-width="0.619401"/>
<ellipse cx="303.316" cy="277.921" rx="7.86131" ry="11.3813" transform="rotate(19.8998 303.316 277.921)" fill="white"/>
<path d="M93.4262 98.9813C88.0539 97.8531 77.3965 90.8061 78.3583 74.6161" stroke="#30235B" stroke-width="0.949425"/>
<path d="M169.118 12.1552C166.193 7.81348 159.282 1.39639 145.352 0.738281" stroke="#30235B" stroke-width="0.949425"/>
<path d="M229.915 223.436L239.506 203.77" stroke="#30235B" stroke-width="0.949425"/>
<path d="M149.767 281.781C146.578 292.541 148.438 304.697 149.767 309.43L158.632 308.173C156.784 294.072 157.862 285.355 158.632 282.76L149.767 281.781Z" fill="#30235B"/>
<rect x="146.255" y="277.172" width="16.7668" height="4.34698" rx="2.17349" transform="rotate(6.01694 146.255 277.172)" fill="url(#paint6_linear_767_2)"/>
<defs>
<linearGradient id="paint0_linear_767_2" x1="132.598" y1="108.061" x2="120.199" y2="356.399" gradientUnits="userSpaceOnUse">
<stop stop-color="#FF9F81"/>
<stop offset="1" stop-color="#F53838"/>
</linearGradient>
<linearGradient id="paint1_linear_767_2" x1="132.464" y1="40.8418" x2="130.247" y2="151.142" gradientUnits="userSpaceOnUse">
<stop stop-color="#FFEFE0"/>
<stop offset="1" stop-color="#FFBE99"/>
</linearGradient>
<linearGradient id="paint2_linear_767_2" x1="134.145" y1="29.426" x2="134.145" y2="125.881" gradientUnits="userSpaceOnUse">
<stop stop-color="#FFEFE0"/>
<stop offset="1" stop-color="#FFBE99"/>
</linearGradient>
<linearGradient id="paint3_linear_767_2" x1="112.959" y1="230.133" x2="112.959" y2="313.999" gradientUnits="userSpaceOnUse">
<stop offset="0.0677966" stop-color="#FFEFE0"/>
<stop offset="1" stop-color="#FFBE99"/>
</linearGradient>
<linearGradient id="paint4_linear_767_2" x1="229.845" y1="107.044" x2="311.23" y2="202.292" gradientUnits="userSpaceOnUse">
<stop stop-color="#FFEFE0"/>
<stop offset="1" stop-color="#FFBE99"/>
</linearGradient>
<linearGradient id="paint5_linear_767_2" x1="332.548" y1="158.446" x2="286.902" y2="347.791" gradientUnits="userSpaceOnUse">
<stop offset="0.0171777" stop-color="white"/>
<stop offset="1" stop-color="#D7D7D7"/>
</linearGradient>
<linearGradient id="paint6_linear_767_2" x1="154.32" y1="276.322" x2="154.208" y2="281.59" gradientUnits="userSpaceOnUse">
<stop stop-color="#7F67CE"/>
<stop offset="1" stop-color="#30235B"/>
</linearGradient>
</defs>
</svg>
