<svg width="136" height="187" viewBox="0 0 136 187" fill="none" xmlns="http://www.w3.org/2000/svg">
<rect x="132.312" y="66.5707" width="126.405" height="10.3543" transform="rotate(117.371 132.312 66.5707)" fill="#E0E0E0"/>
<rect x="43.0081" y="171.013" width="58.4432" height="15.6235" rx="3.09701" fill="#30235B"/>
<rect x="74.8937" y="19.2196" width="20.0325" height="3.56661" transform="rotate(162.128 74.8937 19.2196)" fill="#E0E0E0"/>
<rect x="125.624" y="67.5852" width="67.8967" height="10.3543" transform="rotate(-139.766 125.624 67.5852)" fill="#E0E0E0"/>
<path d="M70.3703 13.9932L80.504 15.8744L73.8079 23.7099L70.3703 13.9932Z" fill="#30235B"/>
<path d="M38.8083 10.6161C41.1425 4.75299 47.7877 1.89221 53.6508 4.22638C59.5139 6.56054 62.3747 13.2057 60.0405 19.0689L53.5863 35.2809L32.3542 26.8281L38.8083 10.6161Z" fill="#30235B"/>
<path d="M45.5406 27.1574C21.9771 17.905 6.29998 38.6315 0.764362 49.6082C17.1251 72.9342 47.0952 75.3304 60.6776 74.1558C65.4501 62.3448 69.1042 36.4097 45.5406 27.1574Z" fill="#30235B"/>
<circle cx="127.941" cy="63.4158" r="7.23339" fill="#30235B"/>
</svg>
